<mxfile host="app.diagrams.net" agent="Mozilla/5.0 (Macintosh; Intel Mac OS X 10_15_7) AppleWebKit/537.36 (KHTML, like Gecko) Chrome/140.0.0.0 Safari/537.36" version="28.2.3">
  <diagram name="Page-1" id="ZD2e53hpPxt1llyhInkw">
    <mxGraphModel dx="1243" dy="915" grid="1" gridSize="10" guides="1" tooltips="1" connect="1" arrows="1" fold="1" page="1" pageScale="1" pageWidth="827" pageHeight="1169" math="0" shadow="0">
      <root>
        <mxCell id="0" />
        <mxCell id="1" parent="0" />
        <mxCell id="49SL4o2bY1ENpGHKqDp4-5" value="&lt;b&gt;&lt;font style=&quot;font-size: 14px;&quot;&gt;STAGE I&lt;br&gt;&lt;/font&gt;&lt;/b&gt;" style="text;html=1;align=center;verticalAlign=middle;whiteSpace=wrap;rounded=0;" vertex="1" parent="1">
          <mxGeometry x="460" y="276" width="130" height="30" as="geometry" />
        </mxCell>
        <mxCell id="49SL4o2bY1ENpGHKqDp4-95" style="edgeStyle=orthogonalEdgeStyle;rounded=0;orthogonalLoop=1;jettySize=auto;html=1;" edge="1" parent="1" source="49SL4o2bY1ENpGHKqDp4-30" target="49SL4o2bY1ENpGHKqDp4-94">
          <mxGeometry relative="1" as="geometry" />
        </mxCell>
        <mxCell id="49SL4o2bY1ENpGHKqDp4-30" value="MAPPER" style="rounded=1;whiteSpace=wrap;html=1;fillColor=#333333;fontColor=#FFFFFF;" vertex="1" parent="1">
          <mxGeometry x="365" y="271" width="90" height="40" as="geometry" />
        </mxCell>
        <mxCell id="49SL4o2bY1ENpGHKqDp4-88" style="edgeStyle=orthogonalEdgeStyle;rounded=0;orthogonalLoop=1;jettySize=auto;html=1;entryX=0.5;entryY=0;entryDx=0;entryDy=0;" edge="1" parent="1" source="49SL4o2bY1ENpGHKqDp4-48" target="49SL4o2bY1ENpGHKqDp4-30">
          <mxGeometry relative="1" as="geometry" />
        </mxCell>
        <mxCell id="49SL4o2bY1ENpGHKqDp4-48" value="&lt;b&gt;SRF&lt;/b&gt; ENABLERS &amp;amp; CROSS-CUTTING PRIORITIES" style="rounded=1;whiteSpace=wrap;html=1;fillColor=#e51400;fontColor=#ffffff;strokeColor=#B20000;" vertex="1" parent="1">
          <mxGeometry x="255" y="190" width="310" height="40" as="geometry" />
        </mxCell>
        <mxCell id="49SL4o2bY1ENpGHKqDp4-102" style="edgeStyle=orthogonalEdgeStyle;rounded=0;orthogonalLoop=1;jettySize=auto;html=1;entryX=0.75;entryY=0;entryDx=0;entryDy=0;" edge="1" parent="1" source="49SL4o2bY1ENpGHKqDp4-49" target="49SL4o2bY1ENpGHKqDp4-87">
          <mxGeometry relative="1" as="geometry">
            <Array as="points">
              <mxPoint x="755" y="600" />
              <mxPoint x="433" y="600" />
            </Array>
          </mxGeometry>
        </mxCell>
        <mxCell id="49SL4o2bY1ENpGHKqDp4-49" value="&lt;b&gt;SRF &lt;/b&gt;OUTPUTS" style="rounded=1;whiteSpace=wrap;html=1;fillColor=#e51400;fontColor=#ffffff;strokeColor=#B20000;" vertex="1" parent="1">
          <mxGeometry x="600" y="530" width="310" height="40" as="geometry" />
        </mxCell>
        <mxCell id="49SL4o2bY1ENpGHKqDp4-97" style="edgeStyle=orthogonalEdgeStyle;rounded=0;orthogonalLoop=1;jettySize=auto;html=1;entryX=0.75;entryY=0;entryDx=0;entryDy=0;" edge="1" parent="1" source="49SL4o2bY1ENpGHKqDp4-60" target="49SL4o2bY1ENpGHKqDp4-86">
          <mxGeometry relative="1" as="geometry">
            <Array as="points">
              <mxPoint x="755" y="400" />
              <mxPoint x="433" y="400" />
            </Array>
          </mxGeometry>
        </mxCell>
        <mxCell id="49SL4o2bY1ENpGHKqDp4-60" value="&lt;b&gt;GCM &lt;/b&gt;OBJECTIVES" style="rounded=1;whiteSpace=wrap;html=1;fillColor=#e51400;fontColor=#ffffff;strokeColor=#B20000;" vertex="1" parent="1">
          <mxGeometry x="600" y="340" width="310" height="40" as="geometry" />
        </mxCell>
        <mxCell id="49SL4o2bY1ENpGHKqDp4-108" style="edgeStyle=orthogonalEdgeStyle;rounded=0;orthogonalLoop=1;jettySize=auto;html=1;entryX=0.5;entryY=0;entryDx=0;entryDy=0;" edge="1" parent="1" source="49SL4o2bY1ENpGHKqDp4-85" target="49SL4o2bY1ENpGHKqDp4-107">
          <mxGeometry relative="1" as="geometry" />
        </mxCell>
        <mxCell id="49SL4o2bY1ENpGHKqDp4-85" value="MAPPER" style="rounded=1;whiteSpace=wrap;html=1;fillColor=#333333;fontColor=#FFFFFF;" vertex="1" parent="1">
          <mxGeometry x="365" y="810" width="90" height="40" as="geometry" />
        </mxCell>
        <mxCell id="49SL4o2bY1ENpGHKqDp4-99" style="edgeStyle=orthogonalEdgeStyle;rounded=0;orthogonalLoop=1;jettySize=auto;html=1;" edge="1" parent="1" source="49SL4o2bY1ENpGHKqDp4-86" target="49SL4o2bY1ENpGHKqDp4-98">
          <mxGeometry relative="1" as="geometry" />
        </mxCell>
        <mxCell id="49SL4o2bY1ENpGHKqDp4-86" value="MAPPER" style="rounded=1;whiteSpace=wrap;html=1;fillColor=#333333;fontColor=#FFFFFF;" vertex="1" parent="1">
          <mxGeometry x="365" y="450" width="90" height="40" as="geometry" />
        </mxCell>
        <mxCell id="49SL4o2bY1ENpGHKqDp4-105" style="edgeStyle=orthogonalEdgeStyle;rounded=0;orthogonalLoop=1;jettySize=auto;html=1;entryX=0.5;entryY=0;entryDx=0;entryDy=0;" edge="1" parent="1" source="49SL4o2bY1ENpGHKqDp4-87" target="49SL4o2bY1ENpGHKqDp4-103">
          <mxGeometry relative="1" as="geometry" />
        </mxCell>
        <mxCell id="49SL4o2bY1ENpGHKqDp4-87" value="FILTER" style="rounded=1;whiteSpace=wrap;html=1;fillColor=#333333;fontColor=#FFFFFF;" vertex="1" parent="1">
          <mxGeometry x="365" y="640" width="90" height="40" as="geometry" />
        </mxCell>
        <mxCell id="49SL4o2bY1ENpGHKqDp4-109" style="edgeStyle=orthogonalEdgeStyle;rounded=0;orthogonalLoop=1;jettySize=auto;html=1;entryX=0;entryY=0.5;entryDx=0;entryDy=0;" edge="1" parent="1" source="49SL4o2bY1ENpGHKqDp4-29" target="49SL4o2bY1ENpGHKqDp4-30">
          <mxGeometry relative="1" as="geometry">
            <Array as="points">
              <mxPoint x="120" y="291" />
            </Array>
          </mxGeometry>
        </mxCell>
        <mxCell id="49SL4o2bY1ENpGHKqDp4-110" style="edgeStyle=orthogonalEdgeStyle;rounded=0;orthogonalLoop=1;jettySize=auto;html=1;exitX=0.75;exitY=0;exitDx=0;exitDy=0;entryX=0;entryY=0.5;entryDx=0;entryDy=0;" edge="1" parent="1" source="49SL4o2bY1ENpGHKqDp4-29" target="49SL4o2bY1ENpGHKqDp4-86">
          <mxGeometry relative="1" as="geometry">
            <Array as="points">
              <mxPoint x="153" y="470" />
            </Array>
          </mxGeometry>
        </mxCell>
        <mxCell id="49SL4o2bY1ENpGHKqDp4-111" style="edgeStyle=orthogonalEdgeStyle;rounded=0;orthogonalLoop=1;jettySize=auto;html=1;exitX=0.75;exitY=1;exitDx=0;exitDy=0;entryX=0;entryY=0.5;entryDx=0;entryDy=0;" edge="1" parent="1" source="49SL4o2bY1ENpGHKqDp4-29" target="49SL4o2bY1ENpGHKqDp4-85">
          <mxGeometry relative="1" as="geometry">
            <Array as="points">
              <mxPoint x="120" y="490" />
              <mxPoint x="120" y="830" />
            </Array>
          </mxGeometry>
        </mxCell>
        <mxCell id="49SL4o2bY1ENpGHKqDp4-29" value="REPORT" style="rounded=1;whiteSpace=wrap;html=1;" vertex="1" parent="1">
          <mxGeometry x="40" y="450" width="150" height="40" as="geometry" />
        </mxCell>
        <mxCell id="49SL4o2bY1ENpGHKqDp4-96" style="edgeStyle=orthogonalEdgeStyle;rounded=0;orthogonalLoop=1;jettySize=auto;html=1;entryX=0.5;entryY=0;entryDx=0;entryDy=0;" edge="1" parent="1" source="49SL4o2bY1ENpGHKqDp4-94" target="49SL4o2bY1ENpGHKqDp4-86">
          <mxGeometry relative="1" as="geometry" />
        </mxCell>
        <mxCell id="49SL4o2bY1ENpGHKqDp4-94" value="&lt;div&gt;&lt;b&gt;MAPPED&lt;/b&gt;&lt;/div&gt;&lt;b&gt;SRF&lt;/b&gt; ENABLERS &amp;amp; CROSS-CUTTING PRIORITIES" style="rounded=1;whiteSpace=wrap;html=1;fillColor=#6d8764;fontColor=#ffffff;strokeColor=#3A5431;" vertex="1" parent="1">
          <mxGeometry x="255" y="340" width="310" height="40" as="geometry" />
        </mxCell>
        <mxCell id="49SL4o2bY1ENpGHKqDp4-100" style="edgeStyle=orthogonalEdgeStyle;rounded=0;orthogonalLoop=1;jettySize=auto;html=1;" edge="1" parent="1" source="49SL4o2bY1ENpGHKqDp4-98" target="49SL4o2bY1ENpGHKqDp4-87">
          <mxGeometry relative="1" as="geometry" />
        </mxCell>
        <mxCell id="49SL4o2bY1ENpGHKqDp4-98" value="&lt;b&gt;MAPPED&lt;br&gt;GCM &lt;/b&gt;OBJECTIVES" style="rounded=1;whiteSpace=wrap;html=1;fillColor=#6d8764;fontColor=#ffffff;strokeColor=#3A5431;" vertex="1" parent="1">
          <mxGeometry x="255" y="530" width="310" height="40" as="geometry" />
        </mxCell>
        <mxCell id="49SL4o2bY1ENpGHKqDp4-106" style="edgeStyle=orthogonalEdgeStyle;rounded=0;orthogonalLoop=1;jettySize=auto;html=1;entryX=0.5;entryY=0;entryDx=0;entryDy=0;" edge="1" parent="1" source="49SL4o2bY1ENpGHKqDp4-103" target="49SL4o2bY1ENpGHKqDp4-85">
          <mxGeometry relative="1" as="geometry" />
        </mxCell>
        <mxCell id="49SL4o2bY1ENpGHKqDp4-103" value="&lt;b&gt;FILTERED&lt;/b&gt;&lt;div&gt;&lt;b&gt;SRF &lt;/b&gt;OUTPUTS&lt;/div&gt;" style="rounded=1;whiteSpace=wrap;html=1;fillColor=#e51400;fontColor=#ffffff;strokeColor=#B20000;" vertex="1" parent="1">
          <mxGeometry x="255" y="720" width="310" height="40" as="geometry" />
        </mxCell>
        <mxCell id="49SL4o2bY1ENpGHKqDp4-107" value="&lt;b&gt;MAPPED&lt;/b&gt;&lt;div&gt;&lt;b&gt;SRF &lt;/b&gt;OUTPUTS&lt;/div&gt;" style="rounded=1;whiteSpace=wrap;html=1;fillColor=#6d8764;fontColor=#ffffff;strokeColor=#3A5431;" vertex="1" parent="1">
          <mxGeometry x="255" y="890" width="310" height="40" as="geometry" />
        </mxCell>
        <mxCell id="49SL4o2bY1ENpGHKqDp4-113" value="&lt;b&gt;&lt;font style=&quot;font-size: 14px;&quot;&gt;STAGE II&lt;br&gt;&lt;/font&gt;&lt;/b&gt;" style="text;html=1;align=center;verticalAlign=middle;whiteSpace=wrap;rounded=0;" vertex="1" parent="1">
          <mxGeometry x="460" y="455" width="130" height="30" as="geometry" />
        </mxCell>
        <mxCell id="49SL4o2bY1ENpGHKqDp4-114" value="&lt;b&gt;&lt;font style=&quot;font-size: 14px;&quot;&gt;STAGE III&lt;br&gt;&lt;/font&gt;&lt;/b&gt;" style="text;html=1;align=center;verticalAlign=middle;whiteSpace=wrap;rounded=0;" vertex="1" parent="1">
          <mxGeometry x="460" y="645" width="130" height="30" as="geometry" />
        </mxCell>
        <mxCell id="49SL4o2bY1ENpGHKqDp4-117" value="&lt;b&gt;&lt;font style=&quot;font-size: 14px;&quot;&gt;STAGE III&lt;br&gt;&lt;/font&gt;&lt;/b&gt;" style="text;html=1;align=center;verticalAlign=middle;whiteSpace=wrap;rounded=0;" vertex="1" parent="1">
          <mxGeometry x="460" y="815" width="130" height="30" as="geometry" />
        </mxCell>
      </root>
    </mxGraphModel>
  </diagram>
</mxfile>
